<?xml version="1.0" encoding="utf-8"?>
<!-- Generator: Adobe Illustrator 19.1.0, SVG Export Plug-In . SVG Version: 6.00 Build 0)  -->
<svg version="1.1" id="Layer_1" xmlns="http://www.w3.org/2000/svg" xmlns:xlink="http://www.w3.org/1999/xlink" x="0px" y="0px"
	 viewBox="0 0 1793.1364746 348.5588379" enable-background="new 0 0 1793.1364746 348.5588379" xml:space="preserve">
<g>
	<defs>
		<rect id="SVGID_1_" width="598" height="348.5588379"/>
	</defs>
	<clipPath id="SVGID_2_">
		<use xlink:href="#SVGID_1_"  overflow="visible"/>
	</clipPath>
	<g clip-path="url(#SVGID_2_)">
		<g>
			<polygon fill="#1B1B1C" points="-0.3823543,69.5588226 18.6176453,69.5588226 18.6176453,32.5588226 37.1176453,32.5588226 
				37.1176453,51.0588226 75.1176453,51.0588226 75.1176453,70.0588226 94.1176453,70.0588226 94.1176453,13.5588226 
				113.1176453,13.5588226 113.1176453,52.0588226 131.1176453,52.0588226 131.1176453,32.5588226 150.1176453,32.5588226 
				150.1176453,69.0588226 168.6176453,69.0588226 168.6176453,51.5588226 187.1176453,51.5588226 187.1176453,70.0588226 
				205.6176453,70.0588226 205.6176453,51.0588226 225.6176453,51.0588226 225.6176453,33.0588226 243.6176453,33.0588226 
				243.6176453,52.0588226 280.6176453,52.0588226 280.6176453,15.0588226 300.1176453,15.0588226 300.1176453,126.5588226 
				-0.3823555,126.5588226 			"/>
			<polygon fill="#1B1B1C" points="299.6176453,69.5588226 318.6176453,69.5588226 318.6176453,32.5588226 337.1176453,32.5588226 
				337.1176453,51.0588226 375.1176453,51.0588226 375.1176453,70.0588226 394.1176453,70.0588226 394.1176453,13.5588226 
				413.1176453,13.5588226 413.1176453,52.0588226 431.1176453,52.0588226 431.1176453,32.5588226 450.1176453,32.5588226 
				450.1176453,69.0588226 468.6176453,69.0588226 468.6176453,51.5588226 487.1176453,51.5588226 487.1176453,70.0588226 
				505.6176453,70.0588226 505.6176453,51.0588226 525.6176758,51.0588226 525.6176758,33.0588226 543.6176758,33.0588226 
				543.6176758,52.0588226 580.6176758,52.0588226 580.6176758,15.0588226 600.1176758,15.0588226 600.1176758,126.5588226 
				299.9509888,126.5588226 			"/>
		</g>
		<g>
			<polygon fill="#242826" points="18.6176453,105.3235321 37.6176453,105.3235321 37.6176453,68.3235321 56.1176453,68.3235321 
				56.1176453,86.8235321 94.1176453,86.8235321 94.1176453,105.8235321 113.1176453,105.8235321 113.1176453,49.3235321 
				132.1176453,49.3235321 132.1176453,87.8235321 150.1176453,87.8235321 150.1176453,68.3235321 169.1176453,68.3235321 
				169.1176453,104.8235321 187.6176453,104.8235321 187.6176453,87.3235321 206.1176453,87.3235321 206.1176453,105.8235321 
				224.6176453,105.8235321 224.6176453,86.8235321 244.6176453,86.8235321 244.6176453,68.8235321 262.6176453,68.8235321 
				262.6176453,87.8235321 299.6176453,87.8235321 299.6176453,50.8235321 319.1176453,50.8235321 319.1176453,162.3235321 
				18.9509792,162.3235321 			"/>
			<polygon fill="#242826" points="318.6176453,105.3235321 337.6176453,105.3235321 337.6176453,68.3235321 
				356.1176453,68.3235321 356.1176453,86.8235321 394.1176453,86.8235321 394.1176453,105.8235321 413.1176453,105.8235321 
				413.1176453,49.3235321 432.1176453,49.3235321 432.1176453,87.8235321 450.1176453,87.8235321 450.1176453,68.3235321 
				469.1176453,68.3235321 469.1176453,104.8235321 487.6176453,104.8235321 487.6176453,87.3235321 506.1176453,87.3235321 
				506.1176453,105.8235321 524.6176758,105.8235321 524.6176758,86.8235321 544.6176758,86.8235321 544.6176758,68.8235321 
				562.6176758,68.8235321 562.6176758,87.8235321 599.6176758,87.8235321 599.6176758,50.8235321 619.1176758,50.8235321 
				619.1176758,162.3235321 318.9509888,162.3235321 			"/>
		</g>
		<g>
			<polygon fill="#2F3B36" points="-19.3823547,142.3235321 -0.3823547,142.3235321 -0.3823547,105.3235321 18.1176453,105.3235321 
				18.1176453,123.8235321 56.1176453,123.8235321 56.1176453,142.8235321 75.1176453,142.8235321 75.1176453,86.3235321 
				94.1176453,86.3235321 94.1176453,124.8235321 112.1176453,124.8235321 112.1176453,105.3235321 131.1176453,105.3235321 
				131.1176453,141.8235321 149.6176453,141.8235321 149.6176453,124.3235321 168.1176453,124.3235321 168.1176453,142.8235321 
				186.6176453,142.8235321 186.6176453,123.8235321 206.6176453,123.8235321 206.6176453,105.8235321 224.6176453,105.8235321 
				224.6176453,124.8235321 261.6176453,124.8235321 261.6176453,87.8235321 281.1176453,87.8235321 281.1176453,199.3235321 
				-19.0490208,199.3235321 			"/>
			<polygon fill="#2F3B36" points="280.6176453,142.3235321 299.6176453,142.3235321 299.6176453,105.3235321 
				318.1176453,105.3235321 318.1176453,123.8235321 356.1176453,123.8235321 356.1176453,142.8235321 375.1176453,142.8235321 
				375.1176453,86.3235321 394.1176453,86.3235321 394.1176453,124.8235321 412.1176453,124.8235321 412.1176453,105.3235321 
				431.1176453,105.3235321 431.1176453,141.8235321 449.6176453,141.8235321 449.6176453,124.3235321 468.1176453,124.3235321 
				468.1176453,142.8235321 486.6176453,142.8235321 486.6176453,123.8235321 506.6176453,123.8235321 506.6176453,105.8235321 
				524.6176758,105.8235321 524.6176758,124.8235321 561.6176758,124.8235321 561.6176758,87.8235321 581.1176758,87.8235321 
				581.1176758,199.3235321 280.9509888,199.3235321 			"/>
		</g>
		<g>
			<polygon fill="#314A3F" points="-0.3823529,178.3235321 18.6176472,178.3235321 18.6176472,141.3235321 37.1176453,141.3235321 
				37.1176453,159.8235321 75.1176453,159.8235321 75.1176453,178.8235321 94.1176453,178.8235321 94.1176453,122.3235321 
				113.1176453,122.3235321 113.1176453,160.8235321 131.1176453,160.8235321 131.1176453,141.3235321 150.1176453,141.3235321 
				150.1176453,177.8235321 168.6176453,177.8235321 168.6176453,160.3235321 187.1176453,160.3235321 187.1176453,178.8235321 
				205.6176453,178.8235321 205.6176453,159.8235321 225.6176453,159.8235321 225.6176453,141.8235321 243.6176453,141.8235321 
				243.6176453,160.8235321 280.6176453,160.8235321 280.6176453,123.8235321 300.1176453,123.8235321 300.1176453,235.3235321 
				-0.0490196,235.3235321 			"/>
			<polygon fill="#314A3F" points="299.6176453,178.3235321 318.6176453,178.3235321 318.6176453,141.3235321 
				337.1176453,141.3235321 337.1176453,159.8235321 375.1176453,159.8235321 375.1176453,178.8235321 394.1176453,178.8235321 
				394.1176453,122.3235321 413.1176453,122.3235321 413.1176453,160.8235321 431.1176453,160.8235321 431.1176453,141.3235321 
				450.1176453,141.3235321 450.1176453,177.8235321 468.6176453,177.8235321 468.6176453,160.3235321 487.1176453,160.3235321 
				487.1176453,178.8235321 505.6176453,178.8235321 505.6176453,159.8235321 525.6176758,159.8235321 525.6176758,141.8235321 
				543.6176758,141.8235321 543.6176758,160.8235321 580.6176758,160.8235321 580.6176758,123.8235321 600.1176758,123.8235321 
				600.1176758,235.3235321 299.9509888,235.3235321 			"/>
		</g>
		<g>
			<polygon fill="#346751" points="18.6176453,215.8529358 37.6176453,215.8529358 37.6176453,178.8529358 56.1176453,178.8529358 
				56.1176453,197.3529358 94.1176453,197.3529358 94.1176453,216.3529358 113.1176453,216.3529358 113.1176453,159.8529358 
				132.1176453,159.8529358 132.1176453,198.3529358 150.1176453,198.3529358 150.1176453,178.8529358 169.1176453,178.8529358 
				169.1176453,215.3529358 187.6176453,215.3529358 187.6176453,197.8529358 206.1176453,197.8529358 206.1176453,216.3529358 
				224.6176453,216.3529358 224.6176453,197.3529358 244.6176453,197.3529358 244.6176453,179.3529358 262.6176453,179.3529358 
				262.6176453,198.3529358 299.6176453,198.3529358 299.6176453,161.3529358 319.1176453,161.3529358 319.1176453,272.8529358 
				18.9509792,272.8529358 			"/>
			<polygon fill="#346751" points="318.6176453,215.8529358 337.6176453,215.8529358 337.6176453,178.8529358 
				356.1176453,178.8529358 356.1176453,197.3529358 394.1176453,197.3529358 394.1176453,216.3529358 413.1176453,216.3529358 
				413.1176453,159.8529358 432.1176453,159.8529358 432.1176453,198.3529358 450.1176453,198.3529358 450.1176453,178.8529358 
				469.1176453,178.8529358 469.1176453,215.3529358 487.6176453,215.3529358 487.6176453,197.8529358 506.1176453,197.8529358 
				506.1176453,216.3529358 524.6176758,216.3529358 524.6176758,197.3529358 544.6176758,197.3529358 544.6176758,179.3529358 
				562.6176758,179.3529358 562.6176758,198.3529358 599.6176758,198.3529358 599.6176758,161.3529358 619.1176758,161.3529358 
				619.1176758,272.8529358 318.9509888,272.8529358 			"/>
		</g>
		<g>
			<polygon fill="#28855F" points="-19,253.5588226 0,253.5588226 0,216.5588226 18.5,216.5588226 18.5,235.0588226 
				56.5,235.0588226 56.5,254.0588226 75.5,254.0588226 75.5,197.5588226 94.5,197.5588226 94.5,236.0588226 112.5,236.0588226 
				112.5,216.5588226 131.5,216.5588226 131.5,253.0588226 150,253.0588226 150,235.5588226 168.5,235.5588226 168.5,254.0588226 
				187,254.0588226 187,235.0588226 207,235.0588226 207,217.0588226 225,217.0588226 225,236.0588226 262,236.0588226 
				262,199.0588226 281.5,199.0588226 281.5,310.5588379 -18.666666,310.5588379 			"/>
			<polygon fill="#28855F" points="281,253.5588226 300,253.5588226 300,216.5588226 318.5,216.5588226 318.5,235.0588226 
				356.5,235.0588226 356.5,254.0588226 375.5,254.0588226 375.5,197.5588226 394.5,197.5588226 394.5,236.0588226 
				412.5,236.0588226 412.5,216.5588226 431.5,216.5588226 431.5,253.0588226 450,253.0588226 450,235.5588226 468.5,235.5588226 
				468.5,254.0588226 487,254.0588226 487,235.0588226 507,235.0588226 507,217.0588226 525,217.0588226 525,236.0588226 
				562,236.0588226 562,199.0588226 581.5,199.0588226 581.5,310.5588379 281.3333435,310.5588379 			"/>
		</g>
		<g>
			<polygon fill="#13B473" points="-0.3823543,291.5588379 18.6176453,291.5588379 18.6176453,254.5588226 37.1176453,254.5588226 
				37.1176453,273.0588379 75.1176453,273.0588379 75.1176453,292.0588379 94.1176453,292.0588379 94.1176453,235.5588226 
				113.1176453,235.5588226 113.1176453,274.0588379 131.1176453,274.0588379 131.1176453,254.5588226 150.1176453,254.5588226 
				150.1176453,291.0588379 168.6176453,291.0588379 168.6176453,273.5588379 187.1176453,273.5588379 187.1176453,292.0588379 
				205.6176453,292.0588379 205.6176453,273.0588379 225.6176453,273.0588379 225.6176453,255.0588226 243.6176453,255.0588226 
				243.6176453,274.0588379 280.6176453,274.0588379 280.6176453,237.0588226 300.1176453,237.0588226 300.1176453,348.5588379 
				-0.3823555,348.5588379 			"/>
			<polygon fill="#13B473" points="299.6176453,291.5588379 318.6176453,291.5588379 318.6176453,254.5588226 
				337.1176453,254.5588226 337.1176453,273.0588379 375.1176453,273.0588379 375.1176453,292.0588379 394.1176453,292.0588379 
				394.1176453,235.5588226 413.1176453,235.5588226 413.1176453,274.0588379 431.1176453,274.0588379 431.1176453,254.5588226 
				450.1176453,254.5588226 450.1176453,291.0588379 468.6176453,291.0588379 468.6176453,273.5588379 487.1176453,273.5588379 
				487.1176453,292.0588379 505.6176453,292.0588379 505.6176453,273.0588379 525.6176758,273.0588379 525.6176758,255.0588226 
				543.6176758,255.0588226 543.6176758,274.0588379 580.6176758,274.0588379 580.6176758,237.0588226 600.1176758,237.0588226 
				600.1176758,348.5588379 299.9509888,348.5588379 			"/>
		</g>
	</g>
</g>
<g>
	<defs>
		<rect id="SVGID_3_" x="597.666626" width="598" height="348.5588379"/>
	</defs>
	<clipPath id="SVGID_4_">
		<use xlink:href="#SVGID_3_"  overflow="visible"/>
	</clipPath>
	<g clip-path="url(#SVGID_4_)">
		<g>
			<polygon fill="#1B1B1C" points="597.2843018,69.5588226 616.2843018,69.5588226 616.2843018,32.5588226 634.7843018,32.5588226 
				634.7843018,51.0588226 672.7843018,51.0588226 672.7843018,70.0588226 691.7843018,70.0588226 691.7843018,13.5588226 
				710.7843018,13.5588226 710.7843018,52.0588226 728.7843018,52.0588226 728.7843018,32.5588226 747.7843018,32.5588226 
				747.7843018,69.0588226 766.2843018,69.0588226 766.2843018,51.5588226 784.7843018,51.5588226 784.7843018,70.0588226 
				803.2843018,70.0588226 803.2843018,51.0588226 823.2843018,51.0588226 823.2843018,33.0588226 841.2843018,33.0588226 
				841.2843018,52.0588226 878.2843018,52.0588226 878.2843018,15.0588226 897.7843018,15.0588226 897.7843018,126.5588226 
				597.2843018,126.5588226 			"/>
			<polygon fill="#1B1B1C" points="897.2843018,69.5588226 916.2843018,69.5588226 916.2843018,32.5588226 934.7843018,32.5588226 
				934.7843018,51.0588226 972.7843018,51.0588226 972.7843018,70.0588226 991.7843018,70.0588226 991.7843018,13.5588226 
				1010.7843018,13.5588226 1010.7843018,52.0588226 1028.7843018,52.0588226 1028.7843018,32.5588226 1047.7843018,32.5588226 
				1047.7843018,69.0588226 1066.2843018,69.0588226 1066.2843018,51.5588226 1084.7843018,51.5588226 1084.7843018,70.0588226 
				1103.2843018,70.0588226 1103.2843018,51.0588226 1123.2843018,51.0588226 1123.2843018,33.0588226 1141.2843018,33.0588226 
				1141.2843018,52.0588226 1178.2843018,52.0588226 1178.2843018,15.0588226 1197.7843018,15.0588226 1197.7843018,126.5588226 
				897.6176147,126.5588226 			"/>
		</g>
		<g>
			<polygon fill="#242826" points="616.2843018,105.3235321 635.2843018,105.3235321 635.2843018,68.3235321 
				653.7843018,68.3235321 653.7843018,86.8235321 691.7843018,86.8235321 691.7843018,105.8235321 710.7843018,105.8235321 
				710.7843018,49.3235321 729.7843018,49.3235321 729.7843018,87.8235321 747.7843018,87.8235321 747.7843018,68.3235321 
				766.7843018,68.3235321 766.7843018,104.8235321 785.2843018,104.8235321 785.2843018,87.3235321 803.7843018,87.3235321 
				803.7843018,105.8235321 822.2843018,105.8235321 822.2843018,86.8235321 842.2843018,86.8235321 842.2843018,68.8235321 
				860.2843018,68.8235321 860.2843018,87.8235321 897.2843018,87.8235321 897.2843018,50.8235321 916.7843018,50.8235321 
				916.7843018,162.3235321 616.6176147,162.3235321 			"/>
			<polygon fill="#242826" points="916.2843018,105.3235321 935.2843018,105.3235321 935.2843018,68.3235321 
				953.7843018,68.3235321 953.7843018,86.8235321 991.7843018,86.8235321 991.7843018,105.8235321 1010.7843018,105.8235321 
				1010.7843018,49.3235321 1029.7843018,49.3235321 1029.7843018,87.8235321 1047.7843018,87.8235321 1047.7843018,68.3235321 
				1066.7843018,68.3235321 1066.7843018,104.8235321 1085.2843018,104.8235321 1085.2843018,87.3235321 1103.7843018,87.3235321 
				1103.7843018,105.8235321 1122.2843018,105.8235321 1122.2843018,86.8235321 1142.2843018,86.8235321 1142.2843018,68.8235321 
				1160.2843018,68.8235321 1160.2843018,87.8235321 1197.2843018,87.8235321 1197.2843018,50.8235321 1216.7843018,50.8235321 
				1216.7843018,162.3235321 916.6176147,162.3235321 			"/>
		</g>
		<g>
			<polygon fill="#2F3B36" points="578.2843018,142.3235321 597.2843018,142.3235321 597.2843018,105.3235321 
				615.7843018,105.3235321 615.7843018,123.8235321 653.7843018,123.8235321 653.7843018,142.8235321 672.7843018,142.8235321 
				672.7843018,86.3235321 691.7843018,86.3235321 691.7843018,124.8235321 709.7843018,124.8235321 709.7843018,105.3235321 
				728.7843018,105.3235321 728.7843018,141.8235321 747.2843018,141.8235321 747.2843018,124.3235321 765.7843018,124.3235321 
				765.7843018,142.8235321 784.2843018,142.8235321 784.2843018,123.8235321 804.2843018,123.8235321 804.2843018,105.8235321 
				822.2843018,105.8235321 822.2843018,124.8235321 859.2843018,124.8235321 859.2843018,87.8235321 878.7843018,87.8235321 
				878.7843018,199.3235321 578.6176147,199.3235321 			"/>
			<polygon fill="#2F3B36" points="878.2843018,142.3235321 897.2843018,142.3235321 897.2843018,105.3235321 
				915.7843018,105.3235321 915.7843018,123.8235321 953.7843018,123.8235321 953.7843018,142.8235321 972.7843018,142.8235321 
				972.7843018,86.3235321 991.7843018,86.3235321 991.7843018,124.8235321 1009.7843018,124.8235321 1009.7843018,105.3235321 
				1028.7843018,105.3235321 1028.7843018,141.8235321 1047.2843018,141.8235321 1047.2843018,124.3235321 
				1065.7843018,124.3235321 1065.7843018,142.8235321 1084.2843018,142.8235321 1084.2843018,123.8235321 
				1104.2843018,123.8235321 1104.2843018,105.8235321 1122.2843018,105.8235321 1122.2843018,124.8235321 
				1159.2843018,124.8235321 1159.2843018,87.8235321 1178.7843018,87.8235321 1178.7843018,199.3235321 878.6176147,199.3235321 
							"/>
		</g>
		<g>
			<polygon fill="#314A3F" points="597.2843018,178.3235321 616.2843018,178.3235321 616.2843018,141.3235321 
				634.7843018,141.3235321 634.7843018,159.8235321 672.7843018,159.8235321 672.7843018,178.8235321 691.7843018,178.8235321 
				691.7843018,122.3235321 710.7843018,122.3235321 710.7843018,160.8235321 728.7843018,160.8235321 728.7843018,141.3235321 
				747.7843018,141.3235321 747.7843018,177.8235321 766.2843018,177.8235321 766.2843018,160.3235321 784.7843018,160.3235321 
				784.7843018,178.8235321 803.2843018,178.8235321 803.2843018,159.8235321 823.2843018,159.8235321 823.2843018,141.8235321 
				841.2843018,141.8235321 841.2843018,160.8235321 878.2843018,160.8235321 878.2843018,123.8235321 897.7843018,123.8235321 
				897.7843018,235.3235321 597.6176147,235.3235321 			"/>
			<polygon fill="#314A3F" points="897.2843018,178.3235321 916.2843018,178.3235321 916.2843018,141.3235321 
				934.7843018,141.3235321 934.7843018,159.8235321 972.7843018,159.8235321 972.7843018,178.8235321 991.7843018,178.8235321 
				991.7843018,122.3235321 1010.7843018,122.3235321 1010.7843018,160.8235321 1028.7843018,160.8235321 1028.7843018,141.3235321 
				1047.7843018,141.3235321 1047.7843018,177.8235321 1066.2843018,177.8235321 1066.2843018,160.3235321 
				1084.7843018,160.3235321 1084.7843018,178.8235321 1103.2843018,178.8235321 1103.2843018,159.8235321 
				1123.2843018,159.8235321 1123.2843018,141.8235321 1141.2843018,141.8235321 1141.2843018,160.8235321 
				1178.2843018,160.8235321 1178.2843018,123.8235321 1197.7843018,123.8235321 1197.7843018,235.3235321 897.6176147,235.3235321 
							"/>
		</g>
		<g>
			<polygon fill="#346751" points="616.2843018,215.8529358 635.2843018,215.8529358 635.2843018,178.8529358 
				653.7843018,178.8529358 653.7843018,197.3529358 691.7843018,197.3529358 691.7843018,216.3529358 710.7843018,216.3529358 
				710.7843018,159.8529358 729.7843018,159.8529358 729.7843018,198.3529358 747.7843018,198.3529358 747.7843018,178.8529358 
				766.7843018,178.8529358 766.7843018,215.3529358 785.2843018,215.3529358 785.2843018,197.8529358 803.7843018,197.8529358 
				803.7843018,216.3529358 822.2843018,216.3529358 822.2843018,197.3529358 842.2843018,197.3529358 842.2843018,179.3529358 
				860.2843018,179.3529358 860.2843018,198.3529358 897.2843018,198.3529358 897.2843018,161.3529358 916.7843018,161.3529358 
				916.7843018,272.8529358 616.6176147,272.8529358 			"/>
			<polygon fill="#346751" points="916.2843018,215.8529358 935.2843018,215.8529358 935.2843018,178.8529358 
				953.7843018,178.8529358 953.7843018,197.3529358 991.7843018,197.3529358 991.7843018,216.3529358 1010.7843018,216.3529358 
				1010.7843018,159.8529358 1029.7843018,159.8529358 1029.7843018,198.3529358 1047.7843018,198.3529358 
				1047.7843018,178.8529358 1066.7843018,178.8529358 1066.7843018,215.3529358 1085.2843018,215.3529358 
				1085.2843018,197.8529358 1103.7843018,197.8529358 1103.7843018,216.3529358 1122.2843018,216.3529358 
				1122.2843018,197.3529358 1142.2843018,197.3529358 1142.2843018,179.3529358 1160.2843018,179.3529358 
				1160.2843018,198.3529358 1197.2843018,198.3529358 1197.2843018,161.3529358 1216.7843018,161.3529358 
				1216.7843018,272.8529358 916.6176147,272.8529358 			"/>
		</g>
		<g>
			<polygon fill="#28855F" points="578.666626,253.5588226 597.666626,253.5588226 597.666626,216.5588226 616.166626,216.5588226 
				616.166626,235.0588226 654.166626,235.0588226 654.166626,254.0588226 673.166626,254.0588226 673.166626,197.5588226 
				692.166626,197.5588226 692.166626,236.0588226 710.166626,236.0588226 710.166626,216.5588226 729.166626,216.5588226 
				729.166626,253.0588226 747.666626,253.0588226 747.666626,235.5588226 766.166626,235.5588226 766.166626,254.0588226 
				784.666626,254.0588226 784.666626,235.0588226 804.666626,235.0588226 804.666626,217.0588226 822.666626,217.0588226 
				822.666626,236.0588226 859.666626,236.0588226 859.666626,199.0588226 879.166626,199.0588226 879.166626,310.5588379 
				579,310.5588379 			"/>
			<polygon fill="#28855F" points="878.666626,253.5588226 897.666626,253.5588226 897.666626,216.5588226 916.166626,216.5588226 
				916.166626,235.0588226 954.166626,235.0588226 954.166626,254.0588226 973.166626,254.0588226 973.166626,197.5588226 
				992.166626,197.5588226 992.166626,236.0588226 1010.166626,236.0588226 1010.166626,216.5588226 1029.166626,216.5588226 
				1029.166626,253.0588226 1047.666626,253.0588226 1047.666626,235.5588226 1066.166626,235.5588226 1066.166626,254.0588226 
				1084.666626,254.0588226 1084.666626,235.0588226 1104.666626,235.0588226 1104.666626,217.0588226 1122.666626,217.0588226 
				1122.666626,236.0588226 1159.666626,236.0588226 1159.666626,199.0588226 1179.166626,199.0588226 1179.166626,310.5588379 
				879,310.5588379 			"/>
		</g>
		<g>
			<polygon fill="#13B473" points="597.2843018,291.5588379 616.2843018,291.5588379 616.2843018,254.5588226 
				634.7843018,254.5588226 634.7843018,273.0588379 672.7843018,273.0588379 672.7843018,292.0588379 691.7843018,292.0588379 
				691.7843018,235.5588226 710.7843018,235.5588226 710.7843018,274.0588379 728.7843018,274.0588379 728.7843018,254.5588226 
				747.7843018,254.5588226 747.7843018,291.0588379 766.2843018,291.0588379 766.2843018,273.5588379 784.7843018,273.5588379 
				784.7843018,292.0588379 803.2843018,292.0588379 803.2843018,273.0588379 823.2843018,273.0588379 823.2843018,255.0588226 
				841.2843018,255.0588226 841.2843018,274.0588379 878.2843018,274.0588379 878.2843018,237.0588226 897.7843018,237.0588226 
				897.7843018,348.5588379 597.2843018,348.5588379 			"/>
			<polygon fill="#13B473" points="897.2843018,291.5588379 916.2843018,291.5588379 916.2843018,254.5588226 
				934.7843018,254.5588226 934.7843018,273.0588379 972.7843018,273.0588379 972.7843018,292.0588379 991.7843018,292.0588379 
				991.7843018,235.5588226 1010.7843018,235.5588226 1010.7843018,274.0588379 1028.7843018,274.0588379 1028.7843018,254.5588226 
				1047.7843018,254.5588226 1047.7843018,291.0588379 1066.2843018,291.0588379 1066.2843018,273.5588379 
				1084.7843018,273.5588379 1084.7843018,292.0588379 1103.2843018,292.0588379 1103.2843018,273.0588379 
				1123.2843018,273.0588379 1123.2843018,255.0588226 1141.2843018,255.0588226 1141.2843018,274.0588379 
				1178.2843018,274.0588379 1178.2843018,237.0588226 1197.7843018,237.0588226 1197.7843018,348.5588379 897.6176147,348.5588379 
							"/>
		</g>
	</g>
</g>
<g>
	<defs>
		<rect id="SVGID_5_" x="1195.1364746" width="598" height="348.5588379"/>
	</defs>
	<clipPath id="SVGID_6_">
		<use xlink:href="#SVGID_5_"  overflow="visible"/>
	</clipPath>
	<g clip-path="url(#SVGID_6_)">
		<g>
			<polygon fill="#1B1B1C" points="1194.7541504,69.5588226 1213.7541504,69.5588226 1213.7541504,32.5588226 
				1232.2541504,32.5588226 1232.2541504,51.0588226 1270.2541504,51.0588226 1270.2541504,70.0588226 1289.2541504,70.0588226 
				1289.2541504,13.5588226 1308.2541504,13.5588226 1308.2541504,52.0588226 1326.2541504,52.0588226 1326.2541504,32.5588226 
				1345.2541504,32.5588226 1345.2541504,69.0588226 1363.7541504,69.0588226 1363.7541504,51.5588226 1382.2541504,51.5588226 
				1382.2541504,70.0588226 1400.7541504,70.0588226 1400.7541504,51.0588226 1420.7541504,51.0588226 1420.7541504,33.0588226 
				1438.7541504,33.0588226 1438.7541504,52.0588226 1475.7541504,52.0588226 1475.7541504,15.0588226 1495.2541504,15.0588226 
				1495.2541504,126.5588226 1194.7540283,126.5588226 			"/>
			<polygon fill="#1B1B1C" points="1494.7541504,69.5588226 1513.7541504,69.5588226 1513.7541504,32.5588226 
				1532.2541504,32.5588226 1532.2541504,51.0588226 1570.2541504,51.0588226 1570.2541504,70.0588226 1589.2541504,70.0588226 
				1589.2541504,13.5588226 1608.2541504,13.5588226 1608.2541504,52.0588226 1626.2541504,52.0588226 1626.2541504,32.5588226 
				1645.2541504,32.5588226 1645.2541504,69.0588226 1663.7541504,69.0588226 1663.7541504,51.5588226 1682.2541504,51.5588226 
				1682.2541504,70.0588226 1700.7541504,70.0588226 1700.7541504,51.0588226 1720.7541504,51.0588226 1720.7541504,33.0588226 
				1738.7541504,33.0588226 1738.7541504,52.0588226 1775.7541504,52.0588226 1775.7541504,15.0588226 1795.2541504,15.0588226 
				1795.2541504,126.5588226 1495.0874023,126.5588226 			"/>
		</g>
		<g>
			<polygon fill="#242826" points="1213.7541504,105.3235321 1232.7541504,105.3235321 1232.7541504,68.3235321 
				1251.2541504,68.3235321 1251.2541504,86.8235321 1289.2541504,86.8235321 1289.2541504,105.8235321 1308.2541504,105.8235321 
				1308.2541504,49.3235321 1327.2541504,49.3235321 1327.2541504,87.8235321 1345.2541504,87.8235321 1345.2541504,68.3235321 
				1364.2541504,68.3235321 1364.2541504,104.8235321 1382.7541504,104.8235321 1382.7541504,87.3235321 1401.2541504,87.3235321 
				1401.2541504,105.8235321 1419.7541504,105.8235321 1419.7541504,86.8235321 1439.7541504,86.8235321 1439.7541504,68.8235321 
				1457.7541504,68.8235321 1457.7541504,87.8235321 1494.7541504,87.8235321 1494.7541504,50.8235321 1514.2541504,50.8235321 
				1514.2541504,162.3235321 1214.0874023,162.3235321 			"/>
			<polygon fill="#242826" points="1513.7541504,105.3235321 1532.7541504,105.3235321 1532.7541504,68.3235321 
				1551.2541504,68.3235321 1551.2541504,86.8235321 1589.2541504,86.8235321 1589.2541504,105.8235321 1608.2541504,105.8235321 
				1608.2541504,49.3235321 1627.2541504,49.3235321 1627.2541504,87.8235321 1645.2541504,87.8235321 1645.2541504,68.3235321 
				1664.2541504,68.3235321 1664.2541504,104.8235321 1682.7541504,104.8235321 1682.7541504,87.3235321 1701.2541504,87.3235321 
				1701.2541504,105.8235321 1719.7541504,105.8235321 1719.7541504,86.8235321 1739.7541504,86.8235321 1739.7541504,68.8235321 
				1757.7541504,68.8235321 1757.7541504,87.8235321 1794.7541504,87.8235321 1794.7541504,50.8235321 1814.2541504,50.8235321 
				1814.2541504,162.3235321 1514.0874023,162.3235321 			"/>
		</g>
		<g>
			<polygon fill="#2F3B36" points="1175.7541504,142.3235321 1194.7541504,142.3235321 1194.7541504,105.3235321 
				1213.2541504,105.3235321 1213.2541504,123.8235321 1251.2541504,123.8235321 1251.2541504,142.8235321 
				1270.2541504,142.8235321 1270.2541504,86.3235321 1289.2541504,86.3235321 1289.2541504,124.8235321 1307.2541504,124.8235321 
				1307.2541504,105.3235321 1326.2541504,105.3235321 1326.2541504,141.8235321 1344.7541504,141.8235321 
				1344.7541504,124.3235321 1363.2541504,124.3235321 1363.2541504,142.8235321 1381.7541504,142.8235321 
				1381.7541504,123.8235321 1401.7541504,123.8235321 1401.7541504,105.8235321 1419.7541504,105.8235321 
				1419.7541504,124.8235321 1456.7541504,124.8235321 1456.7541504,87.8235321 1476.2541504,87.8235321 1476.2541504,199.3235321 
				1176.0874023,199.3235321 			"/>
			<polygon fill="#2F3B36" points="1475.7541504,142.3235321 1494.7541504,142.3235321 1494.7541504,105.3235321 
				1513.2541504,105.3235321 1513.2541504,123.8235321 1551.2541504,123.8235321 1551.2541504,142.8235321 
				1570.2541504,142.8235321 1570.2541504,86.3235321 1589.2541504,86.3235321 1589.2541504,124.8235321 1607.2541504,124.8235321 
				1607.2541504,105.3235321 1626.2541504,105.3235321 1626.2541504,141.8235321 1644.7541504,141.8235321 
				1644.7541504,124.3235321 1663.2541504,124.3235321 1663.2541504,142.8235321 1681.7541504,142.8235321 
				1681.7541504,123.8235321 1701.7541504,123.8235321 1701.7541504,105.8235321 1719.7541504,105.8235321 
				1719.7541504,124.8235321 1756.7541504,124.8235321 1756.7541504,87.8235321 1776.2541504,87.8235321 1776.2541504,199.3235321 
				1476.0874023,199.3235321 			"/>
		</g>
		<g>
			<polygon fill="#314A3F" points="1194.7541504,178.3235321 1213.7541504,178.3235321 1213.7541504,141.3235321 
				1232.2541504,141.3235321 1232.2541504,159.8235321 1270.2541504,159.8235321 1270.2541504,178.8235321 
				1289.2541504,178.8235321 1289.2541504,122.3235321 1308.2541504,122.3235321 1308.2541504,160.8235321 
				1326.2541504,160.8235321 1326.2541504,141.3235321 1345.2541504,141.3235321 1345.2541504,177.8235321 
				1363.7541504,177.8235321 1363.7541504,160.3235321 1382.2541504,160.3235321 1382.2541504,178.8235321 
				1400.7541504,178.8235321 1400.7541504,159.8235321 1420.7541504,159.8235321 1420.7541504,141.8235321 
				1438.7541504,141.8235321 1438.7541504,160.8235321 1475.7541504,160.8235321 1475.7541504,123.8235321 
				1495.2541504,123.8235321 1495.2541504,235.3235321 1195.0874023,235.3235321 			"/>
			<polygon fill="#314A3F" points="1494.7541504,178.3235321 1513.7541504,178.3235321 1513.7541504,141.3235321 
				1532.2541504,141.3235321 1532.2541504,159.8235321 1570.2541504,159.8235321 1570.2541504,178.8235321 
				1589.2541504,178.8235321 1589.2541504,122.3235321 1608.2541504,122.3235321 1608.2541504,160.8235321 
				1626.2541504,160.8235321 1626.2541504,141.3235321 1645.2541504,141.3235321 1645.2541504,177.8235321 
				1663.7541504,177.8235321 1663.7541504,160.3235321 1682.2541504,160.3235321 1682.2541504,178.8235321 
				1700.7541504,178.8235321 1700.7541504,159.8235321 1720.7541504,159.8235321 1720.7541504,141.8235321 
				1738.7541504,141.8235321 1738.7541504,160.8235321 1775.7541504,160.8235321 1775.7541504,123.8235321 
				1795.2541504,123.8235321 1795.2541504,235.3235321 1495.0874023,235.3235321 			"/>
		</g>
		<g>
			<polygon fill="#346751" points="1213.7541504,215.8529358 1232.7541504,215.8529358 1232.7541504,178.8529358 
				1251.2541504,178.8529358 1251.2541504,197.3529358 1289.2541504,197.3529358 1289.2541504,216.3529358 
				1308.2541504,216.3529358 1308.2541504,159.8529358 1327.2541504,159.8529358 1327.2541504,198.3529358 
				1345.2541504,198.3529358 1345.2541504,178.8529358 1364.2541504,178.8529358 1364.2541504,215.3529358 
				1382.7541504,215.3529358 1382.7541504,197.8529358 1401.2541504,197.8529358 1401.2541504,216.3529358 
				1419.7541504,216.3529358 1419.7541504,197.3529358 1439.7541504,197.3529358 1439.7541504,179.3529358 
				1457.7541504,179.3529358 1457.7541504,198.3529358 1494.7541504,198.3529358 1494.7541504,161.3529358 
				1514.2541504,161.3529358 1514.2541504,272.8529358 1214.0874023,272.8529358 			"/>
			<polygon fill="#346751" points="1513.7541504,215.8529358 1532.7541504,215.8529358 1532.7541504,178.8529358 
				1551.2541504,178.8529358 1551.2541504,197.3529358 1589.2541504,197.3529358 1589.2541504,216.3529358 
				1608.2541504,216.3529358 1608.2541504,159.8529358 1627.2541504,159.8529358 1627.2541504,198.3529358 
				1645.2541504,198.3529358 1645.2541504,178.8529358 1664.2541504,178.8529358 1664.2541504,215.3529358 
				1682.7541504,215.3529358 1682.7541504,197.8529358 1701.2541504,197.8529358 1701.2541504,216.3529358 
				1719.7541504,216.3529358 1719.7541504,197.3529358 1739.7541504,197.3529358 1739.7541504,179.3529358 
				1757.7541504,179.3529358 1757.7541504,198.3529358 1794.7541504,198.3529358 1794.7541504,161.3529358 
				1814.2541504,161.3529358 1814.2541504,272.8529358 1514.0874023,272.8529358 			"/>
		</g>
		<g>
			<polygon fill="#28855F" points="1176.1364746,253.5588226 1195.1364746,253.5588226 1195.1364746,216.5588226 
				1213.6364746,216.5588226 1213.6364746,235.0588226 1251.6364746,235.0588226 1251.6364746,254.0588226 
				1270.6364746,254.0588226 1270.6364746,197.5588226 1289.6364746,197.5588226 1289.6364746,236.0588226 
				1307.6364746,236.0588226 1307.6364746,216.5588226 1326.6364746,216.5588226 1326.6364746,253.0588226 
				1345.1364746,253.0588226 1345.1364746,235.5588226 1363.6364746,235.5588226 1363.6364746,254.0588226 
				1382.1364746,254.0588226 1382.1364746,235.0588226 1402.1364746,235.0588226 1402.1364746,217.0588226 
				1420.1364746,217.0588226 1420.1364746,236.0588226 1457.1364746,236.0588226 1457.1364746,199.0588226 
				1476.6364746,199.0588226 1476.6364746,310.5588379 1176.4697266,310.5588379 			"/>
			<polygon fill="#28855F" points="1476.1364746,253.5588226 1495.1364746,253.5588226 1495.1364746,216.5588226 
				1513.6364746,216.5588226 1513.6364746,235.0588226 1551.6364746,235.0588226 1551.6364746,254.0588226 
				1570.6364746,254.0588226 1570.6364746,197.5588226 1589.6364746,197.5588226 1589.6364746,236.0588226 
				1607.6364746,236.0588226 1607.6364746,216.5588226 1626.6364746,216.5588226 1626.6364746,253.0588226 
				1645.1364746,253.0588226 1645.1364746,235.5588226 1663.6364746,235.5588226 1663.6364746,254.0588226 
				1682.1364746,254.0588226 1682.1364746,235.0588226 1702.1364746,235.0588226 1702.1364746,217.0588226 
				1720.1364746,217.0588226 1720.1364746,236.0588226 1757.1364746,236.0588226 1757.1364746,199.0588226 
				1776.6364746,199.0588226 1776.6364746,310.5588379 1476.4697266,310.5588379 			"/>
		</g>
		<g>
			<polygon fill="#13B473" points="1194.7541504,291.5588379 1213.7541504,291.5588379 1213.7541504,254.5588226 
				1232.2541504,254.5588226 1232.2541504,273.0588379 1270.2541504,273.0588379 1270.2541504,292.0588379 
				1289.2541504,292.0588379 1289.2541504,235.5588226 1308.2541504,235.5588226 1308.2541504,274.0588379 
				1326.2541504,274.0588379 1326.2541504,254.5588226 1345.2541504,254.5588226 1345.2541504,291.0588379 
				1363.7541504,291.0588379 1363.7541504,273.5588379 1382.2541504,273.5588379 1382.2541504,292.0588379 
				1400.7541504,292.0588379 1400.7541504,273.0588379 1420.7541504,273.0588379 1420.7541504,255.0588226 
				1438.7541504,255.0588226 1438.7541504,274.0588379 1475.7541504,274.0588379 1475.7541504,237.0588226 
				1495.2541504,237.0588226 1495.2541504,348.5588379 1194.7540283,348.5588379 			"/>
			<polygon fill="#13B473" points="1494.7541504,291.5588379 1513.7541504,291.5588379 1513.7541504,254.5588226 
				1532.2541504,254.5588226 1532.2541504,273.0588379 1570.2541504,273.0588379 1570.2541504,292.0588379 
				1589.2541504,292.0588379 1589.2541504,235.5588226 1608.2541504,235.5588226 1608.2541504,274.0588379 
				1626.2541504,274.0588379 1626.2541504,254.5588226 1645.2541504,254.5588226 1645.2541504,291.0588379 
				1663.7541504,291.0588379 1663.7541504,273.5588379 1682.2541504,273.5588379 1682.2541504,292.0588379 
				1700.7541504,292.0588379 1700.7541504,273.0588379 1720.7541504,273.0588379 1720.7541504,255.0588226 
				1738.7541504,255.0588226 1738.7541504,274.0588379 1775.7541504,274.0588379 1775.7541504,237.0588226 
				1795.2541504,237.0588226 1795.2541504,348.5588379 1495.0874023,348.5588379 			"/>
		</g>
	</g>
</g>
</svg>
